<?xml version="1.0" encoding="UTF-8" standalone="no"?>
<!DOCTYPE svg PUBLIC "-//W3C//DTD SVG 1.1//EN" "http://www.w3.org/Graphics/SVG/1.1/DTD/svg11.dtd">
<svg width="100%" height="100%" viewBox="0 0 300 335" version="1.1" xmlns="http://www.w3.org/2000/svg" xmlns:xlink="http://www.w3.org/1999/xlink" xml:space="preserve" xmlns:serif="http://www.serif.com/" style="fill-rule:evenodd;clip-rule:evenodd;stroke-linejoin:round;stroke-miterlimit:1.41421;">
    <g id="path4152" transform="matrix(0.748512,0,0,0.748512,-41.619,-22.4524)">
        <path d="M438.8,396.2L389.5,323.2L341.7,250.8L339,246.7C326.2,226.4 320,202.3 320,176.5C320,176.5 320,103 320,83.5C320,64 335,53.1 335,44.4C335,35.7 328,32 319.3,32L192.5,32C183.8,32 176.7,35.9 176.7,44.6C176.7,53.3 192,64.8 192,84C192,103.2 192,176.5 192,176.5C192,202.3 184.7,226.3 171.9,246.7L169.6,250.5L122.3,323.2L73.1,396.1C67.3,405.1 64,416.3 64,427.8C64,455.8 80.3,480 127.2,480L384.8,480C431.8,480 448,455.8 448,427.8C447.9,416.3 444.6,405.2 438.8,396.2ZM409.2,441C404.8,445.2 397.6,448 384.7,448L127.1,448C114.3,448 106.3,445 101.9,440.8C99.2,438.2 95.9,434 95.9,427.7C95.9,422.7 97.3,417.7 99.8,413.7L148.8,341.2L148.9,341L149,340.8L196.1,268.3L199.1,263.4C214.8,238.2 223.9,208.2 223.9,176.5L223.9,102.1C223.9,96 224,84.2 222.9,79.9C218.1,61.8 224,64 232.8,64L279.8,64C288.6,64 293.5,62 288.9,79.7C287.9,83.6 287.9,95.4 287.9,102L287.9,176.4C287.9,207.6 295.7,237.7 311.8,263.4C313.1,265.5 315,268.4 315,268.4L362.8,340.5L363,340.9L412,413.4C414.5,417.4 415.9,422.4 415.9,427.4C415.9,433.8 411.9,438.4 409.2,441Z" style="fill-rule:nonzero;"/>
    </g>
    <g id="path4154" transform="matrix(0.788932,0,0,0.788932,-51.927,-32.7998)">
        <path d="M391.2,410.8L378.2,391L366.3,372.8L325.8,311L324.7,309.3C324.4,308.9 324,308.5 323.7,308.1L323.6,307.9L310.4,288L201,288L189.3,305.9L189.2,306C189,306.3 188.7,306.6 188.5,306.9L145.6,372.6L130.5,395.8L129.9,396.7L129.5,397.3L129,398.1L120.6,410.9C119.1,413 118.3,415.7 118.3,418.5C118.3,426 124.4,432 131.8,432L380.1,432C387.6,432 393.6,425.9 393.6,418.5C393.6,416 393,413.6 391.7,411.6C391.5,411.3 391.4,411.1 391.2,410.8ZM188.6,307C188.5,307.2 188.2,307.6 187.9,308.1L188,307.9C188.3,307.5 188.5,307.1 188.6,307L188.6,307ZM302,341.7C300.5,340.2 299.7,338.1 299.7,336C299.7,333.9 300.6,331.8 302,330.3C303.5,328.8 305.6,328 307.6,328C309.7,328 311.8,328.8 313.2,330.3C314.7,331.8 315.5,333.9 315.5,336C315.5,338.1 314.6,340.2 313.2,341.7C311.7,343.2 309.7,344 307.6,344C305.6,344 303.5,343.1 302,341.7ZM338,398.4L314.5,362.5C312.1,358.8 313.1,353.8 316.8,351.4C318.2,350.5 319.7,350.1 321.2,350.1C323.8,350.1 326.3,351.4 327.7,353.7L351.2,389.6C353.6,393.3 352.6,398.3 348.9,400.7C347.5,401.6 346,402 344.6,402C342.1,402 339.5,400.7 338,398.4Z" style="fill-rule:nonzero;"/>
    </g>
    <g id="path4156" transform="matrix(0.788932,0,0,0.788932,1.94468,-32.7998)">
        <path d="M188.5,307C188.2,307.4 184.9,312.4 188.5,307Z" style="fill-rule:nonzero;"/>
    </g>
</svg>
